<?xml version="1.0" encoding="iso-8859-1"?>
<!-- Generator: Adobe Illustrator 21.0.2, SVG Export Plug-In . SVG Version: 6.00 Build 0)  -->
<svg xmlns="http://www.w3.org/2000/svg" xmlns:xlink="http://www.w3.org/1999/xlink" version="1.1" x="0px" y="0px" viewBox="0 0 40 40" style="enable-background:new 0 0 40 40;" xml:space="preserve">
<g id="Layer_1">
	<g>
		<path style="fill:#98CCFD;" d="M20,39.207c-1.244-1.567-3.5-4.716-3.5-6.207c0-1.835,1.472-3.167,3.5-3.167s3.5,1.332,3.5,3.167    C23.5,34.492,21.244,37.641,20,39.207z"/>
		<g>
			<path style="fill:#4788C7;" d="M20,30.333c1.766,0,3,1.097,3,2.667c0,1.073-1.57,3.529-3,5.397c-1.43-1.868-3-4.324-3-5.397     C17,31.43,18.234,30.333,20,30.333 M20,29.333c-2.209,0-4,1.458-4,3.667s4,7,4,7s4-4.791,4-7S22.209,29.333,20,29.333L20,29.333z     "/>
		</g>
	</g>
	<g>
		<path style="fill:#FFFFFF;" d="M21.333,33c0,0.736-1.333,3-1.333,3s-1.333-2.264-1.333-3s0.597-1,1.333-1S21.333,32.264,21.333,33    z"/>
	</g>
	<g>
		<path style="fill:#B6DCFE;" d="M16,32.5c-0.275,0-0.5-0.225-0.5-0.5v-5.5h9V32c0,0.275-0.225,0.5-0.5,0.5H16z"/>
		<g>
			<path style="fill:#4788C7;" d="M24,27v5h-8v-5H24 M25,26H15v6c0,0.552,0.448,1,1,1h8c0.552,0,1-0.448,1-1V26L25,26z"/>
		</g>
	</g>
	<g>
		<path style="fill:#B6DCFE;" d="M27.062,28.5H12.938L9.5,29.359v-4.421c0-0.838,0.416-1.615,1.113-2.08l2.514-1.358h13.746    l2.553,1.382c0.658,0.441,1.074,1.219,1.074,2.057v4.421L27.062,28.5z"/>
		<g>
			<path style="fill:#4788C7;" d="M26.747,22l2.397,1.298C29.681,23.672,30,24.282,30,24.939v3.78l-2.757-0.689L27.123,28H27H13     h-0.123l-0.119,0.03L10,28.719v-3.78c0-0.656,0.319-1.267,0.856-1.641L13.253,22H26.747 M27,21H13l-2.664,1.443     C9.501,22.999,9,23.936,9,24.939V30l4-1h14l4,1v-5.061c0-1.003-0.501-1.94-1.336-2.496L27,21L27,21z"/>
		</g>
	</g>
	<g>
		<path style="fill:#DFF0FE;" d="M13.5,29.5V10c0-3.333,5.151-8.136,6.502-9.338C21.354,1.854,26.5,6.612,26.5,10v19.5H13.5z"/>
		<g>
			<path style="fill:#4788C7;" d="M20.004,1.327C22.129,3.236,26,7.276,26,10v19H14V10C14,7.328,17.878,3.257,20.004,1.327 M20,0     c0,0-7,5.907-7,10s0,20,0,20h14c0,0,0-15.836,0-20S20,0,20,0L20,0z"/>
		</g>
	</g>
	<g>
		<circle style="fill:#B6DCFE;" cx="20" cy="11" r="2.5"/>
		<g>
			<path style="fill:#4788C7;" d="M20,9c1.103,0,2,0.897,2,2s-0.897,2-2,2s-2-0.897-2-2S18.897,9,20,9 M20,8c-1.657,0-3,1.343-3,3     s1.343,3,3,3s3-1.343,3-3S21.657,8,20,8L20,8z"/>
		</g>
	</g>
	<g>
		<circle style="fill:#B6DCFE;" cx="20" cy="20" r="2.5"/>
		<g>
			<path style="fill:#4788C7;" d="M20,18c1.103,0,2,0.897,2,2s-0.897,2-2,2s-2-0.897-2-2S18.897,18,20,18 M20,17     c-1.657,0-3,1.343-3,3s1.343,3,3,3s3-1.343,3-3S21.657,17,20,17L20,17z"/>
		</g>
	</g>
</g>
<g id="Layer_2">
</g>
</svg>
