<?xml version="1.0" standalone="no"?>
<!DOCTYPE svg PUBLIC "-//W3C//DTD SVG 20010904//EN"
 "http://www.w3.org/TR/2001/REC-SVG-20010904/DTD/svg10.dtd">
<svg version="1.0" xmlns="http://www.w3.org/2000/svg"
 width="1600.000000pt" height="1600.000000pt" viewBox="0 0 1600.000000 1600.000000"
 preserveAspectRatio="xMidYMid meet">

<g transform="translate(0.000000,1600.000000) scale(0.100000,-0.100000)"
fill="#000000" stroke="none">
<path d="M5400 13795 l-1795 -1795 1197 -1197 1198 -1198 830 830 830 830 225
-225 225 -225 -404 -405 c-338 -339 -409 -415 -434 -465 -46 -92 -62 -159 -62
-255 0 -146 48 -264 152 -376 l63 -67 -35 7 c-211 43 -592 54 -819 22 -266
-36 -539 -106 -789 -202 -163 -62 -387 -167 -501 -233 l-74 -43 829 -829 829
-829 -212 -212 c-116 -117 -218 -227 -227 -245 -31 -62 -16 -161 33 -217 46
-52 158 -73 224 -40 18 9 128 111 245 227 l212 212 829 -829 829 -829 43 74
c66 114 171 338 233 501 211 551 276 1135 180 1608 l-7 35 70 -65 c74 -68 153
-114 238 -136 69 -19 209 -18 276 2 136 41 148 51 579 480 l405 404 225 -225
225 -225 -830 -830 -830 -830 1198 -1198 1197 -1197 1797 1798 1798 1797
-1197 1197 -1198 1198 -830 -830 -830 -830 -225 225 -225 225 804 805 c862
863 837 835 880 979 21 71 21 211 0 282 -44 146 3 95 -1117 1215 -1124 1122
-1069 1072 -1212 1111 -69 19 -208 17 -275 -3 -145 -43 -116 -17 -980 -880
l-805 -804 -225 225 -225 225 830 830 830 830 -1195 1195 c-657 657 -1197
1195 -1200 1195 -3 0 -813 -808 -1800 -1795z m2725 325 l920 -920 -1523 -1523
-1522 -1522 -922 923 -923 922 1520 1520 c836 836 1522 1520 1525 1520 3 0
419 -414 925 -920z m3262 -2732 l1006 -1006 5 -54 c3 -38 -1 -64 -11 -84 -9
-16 -602 -615 -1319 -1331 -910 -909 -1311 -1304 -1331 -1309 -16 -3 -49 -4
-74 -1 -46 5 -49 8 -1050 1010 -1002 1001 -1005 1004 -1010 1050 -3 25 -2 58
1 74 5 20 399 420 1304 1327 713 714 1311 1307 1327 1318 23 15 43 18 88 15
l58 -3 1006 -1006z m2738 -3268 l920 -920 -1523 -1523 -1522 -1522 -922 923
-923 922 1520 1520 c836 836 1522 1520 1525 1520 3 0 419 -414 925 -920z
m-7030 780 c376 -35 700 -158 994 -378 97 -73 305 -274 384 -372 179 -223 304
-469 372 -735 47 -186 60 -293 59 -515 0 -248 -30 -462 -99 -705 -31 -110
-107 -325 -114 -325 -4 0 -640 634 -1415 1409 l-1410 1410 30 12 c399 158 843
232 1199 199z"/>
<path d="M6920 13475 l-395 -395 278 -277 277 -278 397 397 398 398 -275 275
c-151 151 -277 275 -280 275 -3 0 -183 -178 -400 -395z"/>
<path d="M5720 12275 l-395 -395 278 -277 277 -278 397 397 398 398 -275 275
c-151 151 -277 275 -280 275 -3 0 -183 -178 -400 -395z"/>
<path d="M12920 7475 l-395 -395 278 -277 277 -278 397 397 398 398 -275 275
c-151 151 -277 275 -280 275 -3 0 -183 -178 -400 -395z"/>
<path d="M11720 6275 l-395 -395 278 -277 277 -278 397 397 398 398 -275 275
c-151 151 -277 275 -280 275 -3 0 -183 -178 -400 -395z"/>
<path d="M659 7167 c-119 -50 -191 -126 -236 -251 -17 -49 -19 -336 -3 -561
136 -1866 1053 -3549 2545 -4670 902 -678 1969 -1105 3080 -1235 379 -44 792
-56 875 -26 108 40 192 115 238 214 24 50 27 69 27 162 0 93 -3 112 -27 162
-31 67 -96 140 -153 173 -85 51 -117 56 -380 65 -298 11 -491 30 -762 75
-2367 396 -4236 2293 -4602 4670 -33 216 -51 417 -61 680 -9 263 -14 295 -65
380 -33 58 -106 122 -173 153 -47 22 -74 27 -152 30 -81 2 -103 -1 -151 -21z"/>
<path d="M2659 7167 c-102 -43 -173 -110 -216 -204 -34 -75 -40 -136 -32 -353
43 -1141 555 -2249 1399 -3029 775 -715 1754 -1125 2795 -1169 102 -5 212 -5
246 -1 127 15 251 106 307 227 24 50 27 69 27 162 0 99 -2 110 -32 171 -39 79
-111 150 -189 186 -65 30 -151 42 -292 43 -208 0 -528 46 -774 110 -634 164
-1210 498 -1669 967 -283 289 -486 575 -664 938 -230 468 -342 911 -365 1450
-9 219 -17 259 -65 340 -33 58 -106 122 -173 153 -47 22 -74 27 -152 30 -81 2
-103 -1 -151 -21z"/>
<path d="M4659 7167 c-119 -50 -191 -126 -236 -251 -29 -81 -12 -407 33 -611
81 -367 244 -709 480 -1006 74 -95 268 -289 363 -363 397 -315 862 -495 1354
-525 73 -4 161 -5 195 0 130 15 253 105 310 227 24 50 27 69 27 162 0 99 -2
110 -32 171 -40 80 -111 150 -191 187 -43 20 -82 28 -162 34 -297 24 -410 46
-594 118 -198 78 -377 196 -538 357 -161 159 -280 340 -359 543 -72 182 -93
291 -117 590 -6 80 -14 119 -34 162 -37 80 -107 151 -187 191 -58 28 -77 32
-161 35 -81 2 -103 -1 -151 -21z"/>
</g>
</svg>
